<?xml version="1.0" encoding="UTF-8" standalone="no"?>
<!-- Created with Inkscape (http://www.inkscape.org/) -->

<svg
   xmlns:dc="http://purl.org/dc/elements/1.1/"
   xmlns:cc="http://creativecommons.org/ns#"
   xmlns:rdf="http://www.w3.org/1999/02/22-rdf-syntax-ns#"
   xmlns:svg="http://www.w3.org/2000/svg"
   xmlns="http://www.w3.org/2000/svg"
   xmlns:sodipodi="http://sodipodi.sourceforge.net/DTD/sodipodi-0.dtd"
   xmlns:inkscape="http://www.inkscape.org/namespaces/inkscape"
   width="54mm"
   height="34mm"
   viewBox="0 0 54 34"
   version="1.1"
   id="svg8"
   inkscape:version="0.92.4 (5da689c313, 2019-01-14)"
   sodipodi:docname="smol_forge.svg">
  <defs
     id="defs2" />
  <sodipodi:namedview
     id="base"
     pagecolor="#ffffff"
     bordercolor="#666666"
     borderopacity="1.0"
     inkscape:pageopacity="0.0"
     inkscape:pageshadow="2"
     inkscape:zoom="1.979899"
     inkscape:cx="238.87112"
     inkscape:cy="118.04656"
     inkscape:document-units="mm"
     inkscape:current-layer="layer1"
     showgrid="false"
     inkscape:window-width="2560"
     inkscape:window-height="1315"
     inkscape:window-x="-13"
     inkscape:window-y="-13"
     inkscape:window-maximized="1" />
  <metadata
     id="metadata5">
    <rdf:RDF>
      <cc:Work
         rdf:about="">
        <dc:format>image/svg+xml</dc:format>
        <dc:type
           rdf:resource="http://purl.org/dc/dcmitype/StillImage" />
        <dc:title></dc:title>
      </cc:Work>
    </rdf:RDF>
  </metadata>
  <g
     inkscape:label="Layer 1"
     inkscape:groupmode="layer"
     id="layer1"
     transform="translate(0,-263)">
    <g
       id="g59"
       transform="matrix(0.42843703,0,0,0.42843703,-16.993705,248.21504)">
      <path
         sodipodi:nodetypes="ccc"
         inkscape:connector-curvature="0"
         id="path16"
         d="M 40.63244,64.73363 C 79.374999,23.912202 136.63839,31.471727 165.74256,64.166665 126.47287,80.99741 75.81614,81.072284 40.63244,64.73363 Z"
         style="fill:none;stroke:#000000;stroke-width:0.26458332px;stroke-linecap:butt;stroke-linejoin:miter;stroke-opacity:1" />
      <ellipse
         ry="10.583333"
         rx="12.567708"
         cy="49.047619"
         cx="67.563248"
         id="path18"
         style="fill:#000000;stroke-width:0.26458332" />
      <ellipse
         ry="10.583333"
         rx="12.567708"
         cy="49.992561"
         cx="138.33928"
         id="path18-4"
         style="fill:#000000;stroke-width:0.26458332" />
      <ellipse
         ry="1.4174107"
         rx="1.8898809"
         cy="61.61533"
         cx="88.257446"
         id="path35"
         style="fill:#000000;stroke-width:0.26458332" />
      <ellipse
         ry="1.5119048"
         rx="1.7008928"
         cy="60.386902"
         cx="113.58184"
         id="path37"
         style="fill:#000000;stroke-width:0.26458332" />
      <path
         inkscape:connector-curvature="0"
         id="path39"
         d="m 40.63244,64.73363 c 48.002976,19.276784 97.70685,5.480653 125.11012,-0.566965"
         style="fill:none;stroke:#000000;stroke-width:0.26458332px;stroke-linecap:butt;stroke-linejoin:miter;stroke-opacity:1" />
      <ellipse
         ry="8.8824406"
         rx="24.379465"
         cy="86.467262"
         cx="100.73067"
         id="path43"
         style="fill:#000000;stroke-width:0.26458332" />
      <ellipse
         ry="14.552082"
         rx="23.623512"
         cy="98.940475"
         cx="100.54166"
         id="path53"
         style="fill:#000000;stroke-width:0.22392552" />
      <ellipse
         ry="2.0788691"
         rx="2.8348215"
         cy="51.126484"
         cx="69.16964"
         id="path55"
         style="fill:#ffffff;stroke-width:0.26458332" />
      <ellipse
         ry="2.4568453"
         rx="3.2127976"
         cy="51.693451"
         cx="138.71725"
         id="path57"
         style="fill:#ffffff;stroke-width:0.26458332" />
      <path
         transform="scale(0.26458333)"
         inkscape:connector-curvature="0"
         id="path59"
         d="m 359.87064,427.23915 c -29.16057,-4.41461 -53.82734,-17.93671 -63.60184,-34.86596 -8.19469,-14.19305 -6.07011,-31.45339 5.43976,-44.19345 l 2.53249,-2.80316 -5.00072,-3.51187 c -11.07003,-7.77418 -13.12478,-16.82595 -5.7272,-25.23004 9.18662,-10.43655 32.40628,-18.46201 63.50037,-21.94776 9.63191,-1.07977 38.14963,-1.0715 47.85714,0.0139 23.05607,2.57786 42.98185,8.08821 54.65906,15.11562 5.37573,3.23515 11.22249,9.58694 12.37956,13.4489 2.06486,6.89192 -2.64772,14.74845 -12.20684,20.35046 l -3.29236,1.92946 3.53067,4.66466 c 6.36086,8.40386 8.80341,14.9261 8.79273,23.47883 -0.009,7.02381 -1.60077,12.69687 -5.35098,19.06813 -9.07107,15.41094 -29.58131,27.56382 -55.96219,33.15916 -7.44322,1.57869 -10.81684,1.86417 -24.6925,2.08947 -11.53883,0.18736 -17.9852,-0.0288 -22.85715,-0.76633 z"
         style="fill:#00ff00;stroke-width:0.71428573" />
      <path
         transform="scale(0.26458333)"
         inkscape:connector-curvature="0"
         id="path65"
         d="m 326.65636,280.47639 c -49.76462,-2.7944 -94.31299,-10.51466 -136.07143,-23.58125 -14.22619,-4.4515 -35,-12.07166 -35,-12.83854 0,-0.85538 16.59337,-16.69052 25.73741,-24.56135 4.50514,-3.87783 12.6578,-10.41605 18.11703,-14.52937 l 9.92588,-7.47875 2.18943,4.17223 c 3.05977,5.83074 11.69062,14.24216 17.95882,17.50222 13.87039,7.21393 30.97511,8.35244 45.26386,3.01282 17.15348,-6.41016 28.06695,-20.62251 28.18138,-36.69996 0.0682,-9.58269 -3.21259,-17.66039 -10.2924,-25.34108 l -2.95456,-3.20531 2.04372,-0.78985 c 1.12404,-0.43442 6.86514,-2.17463 12.758,-3.86713 48.98694,-14.06966 100.23796,-15.99637 150.97501,-5.67568 11.02813,2.24329 30.52717,7.40089 36.04769,9.53482 l 2.02269,0.78186 -3.50169,2.76793 c -20.66759,16.33679 -19.67439,44.79224 2.09708,60.08174 9.66688,6.78879 20.77531,9.76851 33.9078,9.09543 13.71813,-0.7031 24.18239,-5.15428 33.10631,-14.08244 5.55961,-5.56226 9.37902,-11.94791 10.36906,-17.33601 0.2707,-1.47321 0.61909,-2.67857 0.77421,-2.67857 0.81233,0 15.92353,11.31857 23.76684,17.8018 11.35831,9.38872 30.61826,28.38238 29.68649,29.27606 -0.63618,0.61018 -51.84453,12.27585 -75.68006,17.24052 -51.86154,10.80216 -94.78491,17.05344 -139.64286,20.33728 -17.86416,1.30776 -66.21732,1.93479 -81.78571,1.06058 z m 11.67186,-43.28832 c 3.98742,-2.7929 3.14314,-7.24783 -1.76199,-9.29733 -2.81628,-1.17671 -6.61441,-0.50046 -8.92293,1.58873 -2.38141,2.15515 -1.37156,6.87984 1.73832,8.13284 2.54247,1.02438 7.19327,0.80384 8.9466,-0.42424 z m 95,-4.28571 c 5.03474,-3.52647 2.2448,-10.52316 -4.19612,-10.52316 -5.4493,0 -8.38678,6.17771 -4.69359,9.8709 2.1269,2.12689 6.34275,2.43622 8.88971,0.65226 z"
         style="fill:#00ff00;stroke-width:0.71428573" />
      <path
         transform="scale(0.26458333)"
         inkscape:connector-curvature="0"
         id="path67"
         d="m 355.94207,289.26362 c -35.04631,-1.28208 -77.04865,-6.80626 -110.71428,-14.56124 -11.39208,-2.62419 -40.49347,-10.75829 -40.05581,-11.19595 0.17509,-0.17509 6.2057,1.14331 13.40136,2.92977 48.24724,11.97827 93.00407,16.73468 150.22587,15.96485 65.48203,-0.88096 119.03978,-8.1493 211.83539,-28.74827 16.72374,-3.71237 30.8666,-6.73302 31.42857,-6.71255 2.99731,0.10919 -32.10953,12.43814 -50.49192,17.73194 -64.87838,18.68381 -135.67542,27.15052 -205.62918,24.59145 z"
         style="fill:#000000;stroke-width:0.71428573" />
    </g>
  </g>
</svg>
